<?xml version="1.0" encoding="UTF-8"?>
<svg width="68px" height="68px" viewBox="0 0 68 68" version="1.1" xmlns="http://www.w3.org/2000/svg" xmlns:xlink="http://www.w3.org/1999/xlink">
    <!-- Generator: Sketch 41 (35326) - http://www.bohemiancoding.com/sketch -->
    <title>circle-exco</title>
    <desc>Created with Sketch.</desc>
    <defs></defs>
    <g id="Page-1" stroke="none" stroke-width="1" fill="none" fill-rule="evenodd">
        <g id="circle-exco">
            <path d="M0.45,34.5 C0.429770112,20.9257599 8.59112654,8.67687552 21.1262875,3.46821525 C33.6614485,-1.74044502 48.1000949,1.11759573 57.7056978,10.7088832 C67.3113007,20.3001707 70.1908724,34.7345386 65.0009131,47.2774539 C59.8109539,59.8203693 47.5742551,67.9999849 34,68 C15.4903553,68.0000206 0.477585163,53.0096241 0.45,34.5" id="Shape" fill="#26376F"></path>
            <path d="M50.2,40.33 L50.15,40.28 C50.1326317,40.2604073 50.1124035,40.2435505 50.09,40.23 L40.18,34.5 L50.09,28.78 L50.09,28.78 L50.14,28.78 L50.19,28.73 C50.2083024,28.7114218 50.2250268,28.6913526 50.24,28.67 C50.2420745,28.6500538 50.2420745,28.6299462 50.24,28.61 C50.244941,28.5734998 50.244941,28.5365002 50.24,28.5 C50.2413057,28.4800213 50.2413057,28.4599787 50.24,28.44 L50.24,22.28 C50.2396251,22.1231788 50.1558118,21.9784104 50.02,21.9 L44.8,18.85 C44.6607695,18.7696152 44.4892305,18.7696152 44.35,18.85 L34,24.83 L23.64,18.83 C23.5033329,18.7534076 23.3366671,18.7534076 23.2,18.83 L17.91,21.9 C17.7741882,21.9784104 17.6903749,22.1231788 17.69,22.28 L17.69,28.39 C17.6898363,28.4673967 17.7105653,28.5434028 17.75,28.61 L17.75,28.61 C17.7674926,28.6323593 17.7876407,28.6525074 17.81,28.67 C17.8394971,28.7131965 17.8768035,28.7505029 17.92,28.78 L27.83,34.5 L17.92,40.22 C17.7841882,40.2984104 17.7003749,40.4431788 17.7,40.6 L17.7,46.71 C17.6988592,46.8698475 17.7826028,47.0183021 17.92,47.1 L23.21,50.15 C23.2769655,50.1885571 23.3527315,50.2092205 23.43,50.21 L23.43,50.21 C23.5072069,50.2087818 23.5828649,50.1881478 23.65,50.15 L34.01,44.15 L44.37,50.15 C44.4365972,50.1894347 44.5126033,50.2101637 44.59,50.21 L44.59,50.21 C44.6561951,50.2072107 44.7210064,50.190155 44.78,50.16 L44.78,50.16 L50.07,47.11 C50.2073972,47.0283021 50.2911408,46.8798475 50.29,46.72 L50.29,40.61 C50.2873696,40.5066415 50.2484253,40.4075105 50.18,40.33 L50.2,40.33 Z M49,40.61 L44.6,43.15 L34.91,37.56 L39.29,35 L49,40.61 Z M23.42,43.15 L19,40.61 L28.25,35.27 L28.25,40.35 L23.42,43.15 Z M23.86,20 L33.55,25.59 L33.55,30.67 L23.86,25.07 L23.86,20 Z M44.57,25.85 L49,28.39 L39.75,33.73 L39.75,28.65 L44.57,25.85 Z M38.84,33.73 L34.84,31.44 L38.84,29.16 L38.84,33.73 L38.84,33.73 Z M38.4,34.5 L34.4,36.78 L34.4,32.22 L38.4,34.5 Z M34.4,30.68 L34.4,26.11 L38.4,28.4 L34.4,30.68 Z M33.51,36.79 L29.51,34.51 L33.51,32.23 L33.51,36.8 L33.51,36.79 Z M29.11,35.28 L33.11,37.57 L29.11,39.86 L29.11,35.27 L29.11,35.28 Z M33.51,38.33 L33.51,42.9 L29.51,40.62 L33.51,38.33 Z M34.4,38.33 L44.09,43.92 L44.09,49 L34.4,43.4 L34.4,38.32 L34.4,38.33 Z M49.4,27.63 L45,25.08 L45,20 L49.4,22.54 L49.4,27.62 L49.4,27.63 Z M44.13,20 L44.13,25.08 L39.29,27.88 L34.89,25.34 L44.13,20 Z M23,20 L23,25.08 L18.6,27.62 L18.6,22.54 L23,20 Z M19,28.39 L23.4,25.85 L33.09,31.44 L28.71,34 L19,28.39 Z M18.56,41.39 L23,43.92 L23,49 L18.6,46.46 L18.6,41.38 L18.56,41.39 Z M23.87,49 L23.87,43.92 L28.72,41.12 L33.12,43.66 L23.87,49 Z M45,49 L45,43.92 L49.4,41.38 L49.4,46.46 L45,49 Z" id="Shape" fill="#00C4B3"></path>
        </g>
    </g>
</svg>