<?xml version="1.0" encoding="UTF-8"?>
<svg width="141px" height="141px" viewBox="0 0 141 141" version="1.1" xmlns="http://www.w3.org/2000/svg" xmlns:xlink="http://www.w3.org/1999/xlink">
    <!-- Generator: Sketch 41 (35326) - http://www.bohemiancoding.com/sketch -->
    <title>Group</title>
    <desc>Created with Sketch.</desc>
    <defs></defs>
    <g id="Page-1" stroke="none" stroke-width="1" fill="none" fill-rule="evenodd">
        <g id="Group">
            <path d="M-2.82591953e-09,70.5310108 C-0.0121282739,42.0113852 17.1599476,16.2938047 43.506327,5.37421323 C69.8527064,-5.54537823 100.18284,0.484308416 120.349263,20.6507309 C140.515685,40.8171533 146.545371,71.1472871 135.625781,97.4936666 C124.706189,123.840046 98.9886083,141.012122 70.4689828,140.999994 C31.5568946,140.983446 0.0165477724,109.443098 -2.82593374e-09,70.5310108" id="Shape" fill="#EBDED9"></path>
            <polygon id="Shape" fill="#414142" points="123.93 73.15 123.93 83.33 113.75 83.33 113.75 88.42 129.02 88.42 129.02 73.15"></polygon>
            <path d="M26.47,62.07 C24.863156,60.9410862 22.9327095,60.3654622 20.97,60.43 L12,60.43 L12,78.24 L17.09,78.24 L17.09,73.24 L21,73.24 C22.9620485,73.3111195 24.8935337,72.7386975 26.5,71.61 C27.914653,70.4339709 28.7329177,68.6896433 28.7329177,66.85 C28.7329177,65.0103567 27.914653,63.2660291 26.5,62.09 M21,68.97 L17.07,68.97 L17.07,64.73 L21,64.73 C22.74,64.73 23.61,65.79 23.62,66.85 C23.63,67.91 22.74,68.97 21,68.97" id="Shape" fill="#414142"></path>
            <path d="M106.31,78.24 L106.31,73.24 L110.22,73.24 L110.82,73.24 L113.72,78.24 L119.52,78.24 L117.4,74.57 L115.91,72 L115.69,71.61 L115.69,71.61 C117.101426,70.4320208 117.917293,68.6884117 117.917293,66.85 C117.917293,65.0115883 117.101426,63.2679792 115.69,62.09 C114.082517,60.9624062 112.152521,60.3869166 110.19,60.45 L101.19,60.45 L101.19,78.26 L106.28,78.26 L106.31,78.24 Z M106.31,66.82 L106.31,64.7 L110.22,64.7 C111.96,64.7 112.83,65.76 112.83,66.82 C112.83,67.88 111.96,68.94 110.22,68.94 L106.31,68.94 L106.31,66.82 Z" id="Shape" fill="#414142"></path>
            <polygon id="Shape" fill="#414142" points="90.1 64.93 99.69 64.93 99.69 60.43 85.01 60.43 85.01 78.24 99.69 78.24 99.69 73.74 90.1 73.74 90.1 71.59 97.98 71.59 97.98 67.09 90.1 67.09"></polygon>
            <path d="M79.88,72.4 L79.88,72.4 L79.12,71.97 C77.9779795,73.5303798 75.9621265,74.1795438 74.1241627,73.5788067 C72.2861989,72.9780696 71.042882,71.2636484 71.042882,69.33 C71.042882,67.3963516 72.2861989,65.6819304 74.1241627,65.0811933 C75.9621265,64.4804562 77.9779795,65.1296202 79.12,66.69 L79.85,66.27 L83.7,64.05 C79.18,57.05 65.65,58.83 65.65,69.29 C65.65,79.75 79.14,81.64 83.65,74.62 L79.88,72.4 Z" id="Shape" fill="#414142"></path>
            <polygon id="Shape" fill="#414142" points="35.04 73.15 35.04 73.15 35.01 73.15 35.01 60.43 29.92 60.43 29.92 78.24 44.23 78.24 44.23 73.15"></polygon>
            <path d="M61.94,78.24 L67.46,78.24 L58.46,60.43 L54.18,60.43 L45.18,78.24 L50.7,78.24 L51.89,75.7 L60.74,75.7 L61.94,78.24 Z M53.94,71.37 L56.34,66.24 L58.74,71.37 L53.94,71.37 Z" id="Shape" fill="#414142"></path>
        </g>
    </g>
</svg>