<?xml version="1.0" encoding="UTF-8"?>
<svg width="142px" height="142px" viewBox="0 0 142 142" version="1.1" xmlns="http://www.w3.org/2000/svg" xmlns:xlink="http://www.w3.org/1999/xlink">
    <!-- Generator: Sketch 41 (35326) - http://www.bohemiancoding.com/sketch -->
    <title>circle-placer</title>
    <desc>Created with Sketch.</desc>
    <defs></defs>
    <g id="Page-1" stroke="none" stroke-width="1" fill="none" fill-rule="evenodd">
        <g id="circle-placer">
            <path d="M-2.41591923e-15,71.5 C-0.0121336094,42.9678214 17.1675006,17.2389212 43.5254765,6.31452345 C69.8834524,-4.60987431 100.226936,1.42246633 120.402235,21.5977651 C140.577534,41.7730639 146.609874,72.1165476 135.685477,98.4745235 C124.761079,124.832499 99.0321786,142.012134 70.5,142 C31.5707845,141.983445 0.0165550588,110.429215 -1.66267739e-14,71.5" id="Shape" fill="#414142"></path>
            <polygon id="Shape" fill="#EBDED9" points="123.93 74.15 123.93 84.33 113.75 84.33 113.75 89.42 129.02 89.42 129.02 74.15"></polygon>
            <path d="M26.47,63.07 C24.863156,61.9410862 22.9327095,61.3654622 20.97,61.43 L12,61.43 L12,79.24 L17.09,79.24 L17.09,74.24 L21,74.24 C22.9620485,74.3111195 24.8935337,73.7386975 26.5,72.61 C27.914653,71.4339709 28.7329177,69.6896433 28.7329177,67.85 C28.7329177,66.0103567 27.914653,64.2660291 26.5,63.09 M21,69.97 L17.07,69.97 L17.07,65.73 L21,65.73 C22.74,65.73 23.61,66.79 23.62,67.85 C23.63,68.91 22.74,69.97 21,69.97" id="Shape" fill="#EBDED9"></path>
            <path d="M106.31,79.24 L106.31,74.24 L110.22,74.24 L110.82,74.24 L113.72,79.24 L119.52,79.24 L117.4,75.57 L115.91,73 L115.69,72.61 L115.69,72.61 C117.101426,71.4320208 117.917293,69.6884117 117.917293,67.85 C117.917293,66.0115883 117.101426,64.2679792 115.69,63.09 C114.082517,61.9624062 112.152521,61.3869166 110.19,61.45 L101.19,61.45 L101.19,79.26 L106.28,79.26 L106.31,79.24 Z M106.31,67.82 L106.31,65.7 L110.22,65.7 C111.96,65.7 112.83,66.76 112.83,67.82 C112.83,68.88 111.96,69.94 110.22,69.94 L106.31,69.94 L106.31,67.82 Z" id="Shape" fill="#EBDED9"></path>
            <polygon id="Shape" fill="#EBDED9" points="90.1 65.93 99.69 65.93 99.69 61.43 85.01 61.43 85.01 79.24 99.69 79.24 99.69 74.74 90.1 74.74 90.1 72.59 97.98 72.59 97.98 68.09 90.1 68.09"></polygon>
            <path d="M79.88,73.4 L79.88,73.4 L79.12,72.97 C77.9779795,74.5303798 75.9621265,75.1795438 74.1241627,74.5788067 C72.2861989,73.9780696 71.042882,72.2636484 71.042882,70.33 C71.042882,68.3963516 72.2861989,66.6819304 74.1241627,66.0811933 C75.9621265,65.4804562 77.9779795,66.1296202 79.12,67.69 L79.85,67.27 L83.7,65.05 C79.18,58.05 65.65,59.83 65.65,70.29 C65.65,80.75 79.14,82.64 83.65,75.62 L79.88,73.4 Z" id="Shape" fill="#EBDED9"></path>
            <polygon id="Shape" fill="#EBDED9" points="35.04 74.15 35.04 74.15 35.01 74.15 35.01 61.43 29.92 61.43 29.92 79.24 44.23 79.24 44.23 74.15"></polygon>
            <path d="M61.94,79.24 L67.46,79.24 L58.46,61.43 L54.18,61.43 L45.18,79.24 L50.7,79.24 L51.89,76.7 L60.74,76.7 L61.94,79.24 Z M53.94,72.37 L56.34,67.24 L58.74,72.37 L53.94,72.37 Z" id="Shape" fill="#EBDED9"></path>
        </g>
    </g>
</svg>