<svg id="Layer_1" data-name="Layer 1" xmlns="http://www.w3.org/2000/svg" viewBox="0 0 141.73 141.73"><defs><style>.cls-1{fill:#d4c3bd;}.cls-2{fill:#414142;}</style></defs><title>Footer</title><path class="cls-1" d="M0,70.86a70.87,70.87,0,1,1,70.87,70.87A70.87,70.87,0,0,1,0,70.86"/><polygon class="cls-2" points="100.44 73.79 100.44 83.84 90.39 83.84 90.39 88.86 105.46 88.86 105.46 73.79 100.44 73.79"/><path class="cls-2" d="M74.46,62.85A8.93,8.93,0,0,0,69,61.24H60.16V78.82h5v-5H69a8.94,8.94,0,0,0,5.43-1.61,6.12,6.12,0,0,0,0-9.4M69,69.65H65.18V65.46H69c1.72,0,2.57,1,2.58,2.09S70.75,69.65,69,69.65"/><path class="cls-2" d="M92.17,62.85a8.93,8.93,0,0,0-5.43-1.61H77.86V78.82h5v-5h3.86a8.94,8.94,0,0,0,5.43-1.61,6.11,6.11,0,0,0,0-9.4m-5.43,6.79H82.89V65.46h3.86c1.72,0,2.57,1,2.58,2.09s-0.87,2.09-2.58,2.09"/><path class="cls-2" d="M54,78.82h5.45L50.57,61.24H46.35L37.47,78.82h5.45l1.17-2.51h8.73ZM46.09,72L48.46,67,50.83,72H46.09Z"/></svg>