<?xml version="1.0" encoding="UTF-8"?>
<svg width="323px" height="233px" viewBox="0 0 323 233" version="1.1" xmlns="http://www.w3.org/2000/svg" xmlns:xlink="http://www.w3.org/1999/xlink">
    <!-- Generator: Sketch 41.1 (35376) - http://www.bohemiancoding.com/sketch -->
    <title>Group</title>
    <desc>Created with Sketch.</desc>
    <defs></defs>
    <g id="Page-1" stroke="none" stroke-width="1" fill="none" fill-rule="evenodd">
        <g id="Group">
            <path d="M247.82,86.5 C247.82,134.17322 209.17322,172.82 161.5,172.82 C113.82678,172.82 75.18,134.17322 75.18,86.5 C75.18,38.8267804 113.82678,0.18 161.5,0.18 C184.39522,0.177347634 206.353619,9.27057917 222.543922,25.4590068 C238.734225,41.6474345 247.83,63.6047799 247.83,86.5" id="Shape" fill="#1E1A2C"></path>
            <g id="Group-2" transform="translate(92.000000, 44.000000)" fill="#FFFFFF">
                <path d="M26.68,28.77 C26.7257526,30.9853051 26.2315234,33.1784472 25.24,35.16 C24.0866667,37.5 22.42,38.67 20.24,38.67 L7.35,38.67 C5.16333333,38.67 3.49666667,37.5 2.35,35.16 C1.35733202,33.1788559 0.863038165,30.9854269 0.91,28.77 L0.91,0.69 L6.32,0.69 L6.32,28.76 C6.29668529,30.2253496 6.59003581,31.6784579 7.18,33.02 C7.94666667,34.6666667 9.04,35.49 10.46,35.49 L17.13,35.49 C18.55,35.49 19.6433333,34.6666667 20.41,33.02 C20.9987626,31.6780776 21.2920597,30.2252339 21.27,28.76 L21.27,0.69 L26.68,0.69 L26.68,28.76 L26.68,28.77 Z" id="Shape"></path>
                <path d="M54.75,10.76 C54.75,14.94 53.4666667,17.99 50.9,19.91 C53.28,21.2433333 54.47,24.5766667 54.47,29.91 L54.47,38.65 L49.06,38.65 L49.06,29.91 C49.0837813,28.1500288 48.8099244,26.3986967 48.25,24.73 C47.5233333,22.5433333 46.41,21.45 44.91,21.45 L39.79,21.45 L39.79,18.23 L45,18.23 C46.4533333,18.23 47.5466667,17.3666667 48.28,15.64 C49.4316299,12.7194267 49.4316299,9.47057332 48.28,6.55 C47.5533333,4.74333333 46.46,3.84 45,3.84 L37.47,3.84 L37.47,38.64 L31.77,38.64 L31.77,0.64 L48.05,0.64 C50.2766667,0.64 52.0033333,1.84666667 53.23,4.26 C54.2465411,6.29555814 54.7608814,8.54493977 54.73,10.82" id="Shape"></path>
                <path d="M82.18,28.59 C82.2257248,30.8339366 81.7534954,33.0582056 80.8,35.09 C79.6133333,37.47 77.9066667,38.66 75.68,38.66 L59.4,38.66 L59.4,0.58 L75.68,0.58 C77.9,0.58 79.6066667,1.80666667 80.8,4.26 C81.7535558,6.3342917 82.2253382,8.59747965 82.18,10.88 C82.18,14.7533333 81.2033333,17.7233333 79.25,19.79 C81.21,21.8633333 82.1866667,24.7966667 82.18,28.59 M76.77,28.36 C76.7963853,26.8394318 76.503406,25.3302475 75.91,23.93 C75.1833333,22.2433333 74.09,21.4 72.63,21.4 L67.4,21.4 L67.4,18.18 L72.63,18.18 C74.09,18.18 75.1833333,17.3166667 75.91,15.59 C77.0606316,12.6692371 77.0606316,9.42076294 75.91,6.5 C75.1833333,4.7 74.09,3.8 72.63,3.8 L65.1,3.8 L65.1,35.5 L72.63,35.5 C74.05,35.5 75.1433333,34.6166667 75.91,32.85 C76.5079439,31.4300758 76.8009372,29.9003781 76.77,28.36" id="Shape"></path>
                <path d="M109,38.66 L103.3,38.66 L101.86,30.32 L92.77,30.32 L91.27,38.66 L85.58,38.66 L93.35,0.66 L101.23,0.66 L109,38.66 Z M101.4,27.1 L97.54,5.87 C97.4596268,5.43473967 97.4227785,4.99255989 97.43,4.55 L97.31,4.55 C97.3120826,4.99072643 97.2920574,5.43127994 97.25,5.87 L93.34,27.1 L101.39,27.1 L101.4,27.1 Z" id="Shape"></path>
                <polygon id="Shape" points="138.1 38.6 130.79 38.6 119.57 11.91 119.57 38.6 115.14 38.6 115.14 0.58 121.41 0.58 133.61 30.61 133.61 0.58 138.1 0.58"></polygon>
                <polygon id="Shape" points="34.5 84.36 30.13 84.36 30.13 57.04 22.93 84.36 17.93 84.36 10.8 57.21 10.8 84.36 6.31 84.36 6.31 46.34 12.81 46.34 20.4 75.79 28 46.34 34.5 46.34"></polygon>
                <path d="M62,84.42 L56.3,84.42 L54.86,76.08 L45.77,76.08 L44.27,84.42 L38.58,84.42 L46.35,46.42 L54.23,46.42 L62,84.42 Z M54.35,72.86 L50.5,51.63 C50.4152642,51.1952187 50.3750565,50.7529339 50.38,50.31 L50.26,50.31 C50.26,50.81 50.26,51.25 50.2,51.63 L46.29,72.86 L54.34,72.86 L54.35,72.86 Z" id="Shape"></path>
                <polygon id="Shape" points="82.59 49.33 74.42 49.33 74.42 84.36 68.67 84.36 68.67 49.33 61.19 49.33 61.19 46.17 82.59 46.17"></polygon>
                <path d="M104.85,84.42 L91.85,84.42 C89.6633333,84.42 87.9766667,83.25 86.79,80.91 C85.7981564,78.9321357 85.3038631,76.742142 85.35,74.53 L85.35,56.41 C85.3123044,54.1602544 85.8056551,51.9333243 86.79,49.91 C87.9766667,47.53 89.6633333,46.34 91.85,46.34 L104.85,46.34 L104.85,49.56 L94.85,49.56 C93.47,49.56 92.3966667,50.3833333 91.63,52.03 C91.0017478,53.3999852 90.687429,54.8929994 90.71,56.4 L90.71,74.52 C90.6863804,75.9917174 91.0011405,77.4491936 91.63,78.78 C92.3966667,80.4266667 93.47,81.25 94.85,81.25 L104.85,81.25 L104.85,84.41 L104.85,84.42 Z" id="Shape"></path>
                <polygon id="Shape" points="133.44 84.36 127.69 84.36 127.69 66.88 115.89 66.88 115.89 84.36 110.08 84.36 110.08 46.34 115.89 46.34 115.89 63.71 127.69 63.71 127.69 46.34 133.44 46.34"></polygon>
            </g>
            <path d="M16.1325,217.285 L15.4845,213.37 L0.7425,213.37 L0.7425,217.285 L6.0075,217.285 L6.0075,232 L10.6515,232 L10.6515,217.285 L16.1325,217.285 Z M33.9255,232 L33.9255,213.37 L29.2815,213.37 L29.2815,220.336 L22.8285,220.336 L22.8285,213.37 L18.2115,213.37 L18.2115,232 L22.8285,232 L22.8285,224.386 L29.2815,224.386 L29.2815,232 L33.9255,232 Z M42.0255,232 L42.0255,213.37 L37.4085,213.37 L37.4085,232 L42.0255,232 Z M61.1685,232 L61.1685,213.37 L56.8755,213.37 L56.8755,223.792 L50.0175,213.37 L45.5355,213.37 L45.5355,232 L49.8285,232 L49.8285,220.849 L57.1725,232 L61.1685,232 Z M80.4195,231.433 L73.5885,222.01 L80.2035,213.37 L75.0195,213.37 L69.1875,221.335 L69.1875,213.37 L64.5705,213.37 L64.5705,232 L69.1875,232 L69.1875,223.333 L75.4245,232.189 L80.4195,231.433 Z M101.4255,230.947 L100.8315,227.167 C99.4275,227.95 98.1045,228.463 96.5925,228.463 C93.7845,228.463 91.7055,226.411 91.7055,222.685 C91.7055,219.04 93.5415,216.907 96.3495,216.907 C97.9695,216.907 99.3735,217.555 100.5075,218.419 L101.1555,214.261 C99.8055,213.505 98.1045,213.046 95.9985,213.046 C90.7065,213.046 87.0885,216.934 87.0885,222.712 C87.0885,228.544 90.4905,232.324 96.1335,232.324 C98.1855,232.324 99.9135,231.784 101.4255,230.947 Z M108.8235,232 L108.8235,213.37 L104.2065,213.37 L104.2065,232 L108.8235,232 Z M126.6975,217.285 L126.0495,213.37 L111.3075,213.37 L111.3075,217.285 L116.5725,217.285 L116.5725,232 L121.2165,232 L121.2165,217.285 L126.6975,217.285 Z M145.1655,213.37 L140.3325,213.37 L136.3635,220.93 L132.3135,213.181 L127.3995,213.856 L133.8255,225.196 L133.8255,232 L138.4695,232 L138.4695,225.142 L145.1655,213.37 Z M148.1355,232 L148.1355,227.356 L143.7615,227.356 L143.7615,232 L148.1355,232 Z M171.1395,217.285 L170.4915,213.37 L155.7495,213.37 L155.7495,217.285 L161.0145,217.285 L161.0145,232 L165.6585,232 L165.6585,217.285 L171.1395,217.285 Z M188.9325,232 L188.9325,213.37 L184.2885,213.37 L184.2885,220.336 L177.8355,220.336 L177.8355,213.37 L173.2185,213.37 L173.2185,232 L177.8355,232 L177.8355,224.386 L184.2885,224.386 L184.2885,232 L188.9325,232 Z M197.0325,232 L197.0325,213.37 L192.4155,213.37 L192.4155,232 L197.0325,232 Z M216.1755,232 L216.1755,213.37 L211.8825,213.37 L211.8825,223.792 L205.0245,213.37 L200.5425,213.37 L200.5425,232 L204.8355,232 L204.8355,220.849 L212.1795,232 L216.1755,232 Z M235.4265,231.433 L228.5955,222.01 L235.2105,213.37 L230.0265,213.37 L224.1945,221.335 L224.1945,213.37 L219.5775,213.37 L219.5775,232 L224.1945,232 L224.1945,223.333 L230.4315,232.189 L235.4265,231.433 Z M241.4205,232 L245.9295,232 L247.1715,228.139 L253.6515,228.139 L255.0285,232.189 L259.6725,231.433 L253.1925,213.289 L248.1165,213.289 L241.4205,232 Z M250.4115,218.041 L252.4905,224.521 L248.2785,224.521 L250.4115,218.041 Z M276.3045,230.38 L276.3045,221.308 L268.5015,221.308 L269.0415,224.737 L272.2815,224.737 L272.2815,228.058 C271.5255,228.436 270.7965,228.652 269.7705,228.652 C266.5575,228.652 264.9375,226.195 264.9375,222.685 C264.9375,219.202 266.5035,216.826 269.7165,216.826 C271.6335,216.826 273.2805,217.528 274.6845,218.419 L275.3055,214.396 C273.8205,213.559 271.9035,213.019 269.6085,213.019 C263.8575,213.019 260.3205,216.934 260.3205,222.712 C260.3205,228.463 263.5875,232.351 269.5005,232.351 C272.0655,232.351 274.3605,231.649 276.3045,230.38 Z M278.0595,232 L282.5685,232 L283.8105,228.139 L290.2905,228.139 L291.6675,232.189 L296.3115,231.433 L289.8315,213.289 L284.7555,213.289 L278.0595,232 Z M287.0505,218.041 L289.1295,224.521 L284.9175,224.521 L287.0505,218.041 Z M303.0885,232 L303.0885,213.37 L298.4715,213.37 L298.4715,232 L303.0885,232 Z M322.2315,232 L322.2315,213.37 L317.9385,213.37 L317.9385,223.792 L311.0805,213.37 L306.5985,213.37 L306.5985,232 L310.8915,232 L310.8915,220.849 L318.2355,232 L322.2315,232 Z" id="Think-city.-Think-ag" fill="#FFFFFF"></path>
        </g>
    </g>
</svg>